<svg xmlns="http://www.w3.org/2000/svg" version="1.1" width="308.7mm" height="236.7mm" viewBox = " 0 0 1093.8197969999999 838.701477" >
<!-- Front--> 
<g transform="translate(22.5000185, 22.5000185) " > 
<polygon style="stroke:#000000; fill:none; stroke-width:0.90000074" points="0, 0 23.9173425, 0 23.9173425, 10.62993 47.834685, 10.62993 47.834685, 0 65.55123499999999, 0 65.55123499999999, 10.62993 83.267785, 10.62993 83.267785, 0 100.98433499999999, 0 100.98433499999999, 10.62993 118.700885, 10.62993 118.700885, 0 136.41743499999998, 0 136.41743499999998, 10.62993 154.133985, 10.62993 154.133985, 0 171.85053499999998, 0 171.85053499999998, 10.62993 189.567085, 10.62993 189.567085, 0 207.28363499999998, 0 207.28363499999998, 10.62993 225.000185, 10.62993 225.000185, 0 242.716735, 0 242.716735, 10.62993 260.43328499999996, 10.62993 260.43328499999996, 0 278.14983499999994, 0 278.14983499999994, 10.62993 302.06717749999996, 10.62993 302.06717749999996, 0 325.98452, 0 325.98452, 23.9173425 315.35459, 23.9173425 315.35459, 47.834685 325.98452, 47.834685 325.98452, 65.55123499999999 315.35459, 65.55123499999999 315.35459, 83.267785 325.98452, 83.267785 325.98452, 100.98433499999999 315.35459, 100.98433499999999 315.35459, 118.700885 325.98452, 118.700885 325.98452, 136.41743499999998 315.35459, 136.41743499999998 315.35459, 154.133985 325.98452, 154.133985 325.98452, 171.85053499999998 315.35459, 171.85053499999998 315.35459, 189.567085 325.98452, 189.567085 325.98452, 207.28363499999998 315.35459, 207.28363499999998 315.35459, 225.000185 325.98452, 225.000185 325.98452, 242.716735 315.35459, 242.716735 315.35459, 260.43328499999996 325.98452, 260.43328499999996 325.98452, 278.14983499999994 315.35459, 278.14983499999994 315.35459, 295.866385 325.98452, 295.866385 325.98452, 313.58293499999996 315.35459, 313.58293499999996 315.35459, 331.29948499999995 325.98452, 331.29948499999995 325.98452, 349.01603499999993 315.35459, 349.01603499999993 315.35459, 372.93337749999995 325.98452, 372.93337749999995 325.98452, 396.85072 302.06717749999996, 396.85072 302.06717749999996, 386.22079 278.14983499999994, 386.22079 278.14983499999994, 396.85072 260.43328499999996, 396.85072 260.43328499999996, 386.22079 242.716735, 386.22079 242.716735, 396.85072 225.000185, 396.85072 225.000185, 386.22079 207.28363499999998, 386.22079 207.28363499999998, 396.85072 189.567085, 396.85072 189.567085, 386.22079 171.85053499999998, 386.22079 171.85053499999998, 396.85072 154.133985, 396.85072 154.133985, 386.22079 136.41743499999998, 386.22079 136.41743499999998, 396.85072 118.700885, 396.85072 118.700885, 386.22079 100.98433499999999, 386.22079 100.98433499999999, 396.85072 83.267785, 396.85072 83.267785, 386.22079 65.55123499999999, 386.22079 65.55123499999999, 396.85072 47.834685, 396.85072 47.834685, 386.22079 23.9173425, 386.22079 23.9173425, 396.85072 0, 396.85071999999997 0, 372.93337749999995 10.62993, 372.93337749999995 10.62993, 349.01603499999993 0, 349.01603499999993 0, 331.29948499999995 10.62993, 331.29948499999995 10.62993, 313.58293499999996 0, 313.58293499999996 0, 295.866385 10.62993, 295.866385 10.62993, 278.14983499999994 0, 278.14983499999994 0, 260.43328499999996 10.62993, 260.43328499999996 10.62993, 242.716735 0, 242.716735 0, 225.000185 10.62993, 225.000185 10.62993, 207.28363499999998 0, 207.28363499999998 0, 189.567085 10.62993, 189.567085 10.62993, 171.85053499999998 0, 171.85053499999998 0, 154.133985 10.62993, 154.133985 10.62993, 136.41743499999998 0, 136.41743499999998 0, 118.700885 10.62993, 118.700885 10.62993, 100.98433499999999 0, 100.98433499999999 0, 83.267785 10.62993, 83.267785 10.62993, 65.55123499999999 0, 65.55123499999999 0, 47.834685 10.62993, 47.834685 10.62993, 23.9173425 0, 23.9173425 "/> 
</g>
<!-- Back--> 
<g transform="translate(348.4845385, 22.5000185) " > 
 <circle cx="159.44895" cy="318.8979" r="30.118135" style="stroke:#000000;stroke-width:0.90000074;fill:none" /> 
<polygon style="stroke:#000000; fill:none; stroke-width:0.90000074" points="0, 0 23.9173425, 0 23.9173425, 10.62993 47.834685, 10.62993 47.834685, 0 65.55123499999999, 0 65.55123499999999, 10.62993 83.267785, 10.62993 83.267785, 0 100.98433499999999, 0 100.98433499999999, 10.62993 118.700885, 10.62993 118.700885, 0 136.41743499999998, 0 136.41743499999998, 10.62993 154.133985, 10.62993 154.133985, 0 171.85053499999998, 0 171.85053499999998, 10.62993 189.567085, 10.62993 189.567085, 0 207.28363499999998, 0 207.28363499999998, 10.62993 225.000185, 10.62993 225.000185, 0 242.716735, 0 242.716735, 10.62993 260.43328499999996, 10.62993 260.43328499999996, 0 278.14983499999994, 0 278.14983499999994, 10.62993 302.06717749999996, 10.62993 302.06717749999996, 0 325.98452, 0 325.98452, 23.9173425 315.35459, 23.9173425 315.35459, 47.834685 325.98452, 47.834685 325.98452, 65.55123499999999 315.35459, 65.55123499999999 315.35459, 83.267785 325.98452, 83.267785 325.98452, 100.98433499999999 315.35459, 100.98433499999999 315.35459, 118.700885 325.98452, 118.700885 325.98452, 136.41743499999998 315.35459, 136.41743499999998 315.35459, 154.133985 325.98452, 154.133985 325.98452, 171.85053499999998 315.35459, 171.85053499999998 315.35459, 189.567085 325.98452, 189.567085 325.98452, 207.28363499999998 315.35459, 207.28363499999998 315.35459, 225.000185 325.98452, 225.000185 325.98452, 242.716735 315.35459, 242.716735 315.35459, 260.43328499999996 325.98452, 260.43328499999996 325.98452, 278.14983499999994 315.35459, 278.14983499999994 315.35459, 295.866385 325.98452, 295.866385 325.98452, 313.58293499999996 315.35459, 313.58293499999996 315.35459, 331.29948499999995 325.98452, 331.29948499999995 325.98452, 349.01603499999993 315.35459, 349.01603499999993 315.35459, 372.93337749999995 325.98452, 372.93337749999995 325.98452, 396.85072 302.06717749999996, 396.85072 302.06717749999996, 386.22079 278.14983499999994, 386.22079 278.14983499999994, 396.85072 260.43328499999996, 396.85072 260.43328499999996, 386.22079 242.716735, 386.22079 242.716735, 396.85072 225.000185, 396.85072 225.000185, 386.22079 207.28363499999998, 386.22079 207.28363499999998, 396.85072 189.567085, 396.85072 189.567085, 386.22079 171.85053499999998, 386.22079 171.85053499999998, 396.85072 154.133985, 396.85072 154.133985, 386.22079 136.41743499999998, 386.22079 136.41743499999998, 396.85072 118.700885, 396.85072 118.700885, 386.22079 100.98433499999999, 386.22079 100.98433499999999, 396.85072 83.267785, 396.85072 83.267785, 386.22079 65.55123499999999, 386.22079 65.55123499999999, 396.85072 47.834685, 396.85072 47.834685, 386.22079 23.9173425, 386.22079 23.9173425, 396.85072 0, 396.85071999999997 0, 372.93337749999995 10.62993, 372.93337749999995 10.62993, 349.01603499999993 0, 349.01603499999993 0, 331.29948499999995 10.62993, 331.29948499999995 10.62993, 313.58293499999996 0, 313.58293499999996 0, 295.866385 10.62993, 295.866385 10.62993, 278.14983499999994 0, 278.14983499999994 0, 260.43328499999996 10.62993, 260.43328499999996 10.62993, 242.716735 0, 242.716735 0, 225.000185 10.62993, 225.000185 10.62993, 207.28363499999998 0, 207.28363499999998 0, 189.567085 10.62993, 189.567085 10.62993, 171.85053499999998 0, 171.85053499999998 0, 154.133985 10.62993, 154.133985 10.62993, 136.41743499999998 0, 136.41743499999998 0, 118.700885 10.62993, 118.700885 10.62993, 100.98433499999999 0, 100.98433499999999 0, 83.267785 10.62993, 83.267785 10.62993, 65.55123499999999 0, 65.55123499999999 0, 47.834685 10.62993, 47.834685 10.62993, 23.9173425 0, 23.9173425 "/> 
</g>
<!-- Left--> 
<g transform="translate(674.4690585, 22.5000185) " > 
<polygon style="stroke:#000000; fill:none; stroke-width:0.90000074" points="10.62993, 0 23.9173425, 0 23.9173425, 10.62993 47.834685, 10.62993 47.834685, 0 65.55123499999999, 0 65.55123499999999, 10.62993 83.267785, 10.62993 83.267785, 0 100.98433499999999, 0 100.98433499999999, 10.62993 118.700885, 10.62993 118.700885, 0 136.41743499999998, 0 136.41743499999998, 10.62993 154.133985, 10.62993 154.133985, 0 171.85053499999998, 0 171.85053499999998, 10.62993 189.567085, 10.62993 189.567085, 0 207.28363499999998, 0 207.28363499999998, 10.62993 225.000185, 10.62993 225.000185, 0 242.716735, 0 242.716735, 10.62993 260.43328499999996, 10.62993 260.43328499999996, 0 278.14983499999994, 0 278.14983499999994, 10.62993 295.866385, 10.62993 295.866385, 0 313.58293499999996, 0 313.58293499999996, 10.62993 331.29948499999995, 10.62993 331.29948499999995, 0 349.01603499999993, 0 349.01603499999993, 10.62993 372.93337749999995, 10.62993 372.93337749999995, 0 386.22079, 0 386.22079, 23.9173425 396.85072, 23.9173425 396.85072, 47.834685 386.22079, 47.834685 386.22079, 65.55123499999999 396.85072, 65.55123499999999 396.85072, 83.267785 386.22079, 83.267785 386.22079, 100.98433499999999 396.85072, 100.98433499999999 396.85072, 118.700885 386.22079, 118.700885 386.22079, 136.41743499999998 396.85072, 136.41743499999998 396.85072, 154.133985 386.22079, 154.133985 386.22079, 171.85053499999998 396.85072, 171.85053499999998 396.85072, 189.567085 386.22079, 189.567085 386.22079, 207.28363499999998 396.85072, 207.28363499999998 396.85072, 225.000185 386.22079, 225.000185 386.22079, 242.716735 396.85072, 242.716735 396.85072, 260.43328499999996 386.22079, 260.43328499999996 386.22079, 278.14983499999994 396.85072, 278.14983499999994 396.85072, 295.866385 386.22079, 295.866385 386.22079, 313.58293499999996 396.85072, 313.58293499999996 396.85072, 331.29948499999995 386.22079, 331.29948499999995 386.22079, 349.01603499999993 396.85072, 349.01603499999993 396.85072, 372.93337749999995 386.22079, 372.93337749999995 386.22078999999997, 396.85072 372.93337749999995, 396.85072 372.93337749999995, 386.22079 349.01603499999993, 386.22079 349.01603499999993, 396.85072 331.29948499999995, 396.85072 331.29948499999995, 386.22079 313.58293499999996, 386.22079 313.58293499999996, 396.85072 295.866385, 396.85072 295.866385, 386.22079 278.14983499999994, 386.22079 278.14983499999994, 396.85072 260.43328499999996, 396.85072 260.43328499999996, 386.22079 242.716735, 386.22079 242.716735, 396.85072 225.000185, 396.85072 225.000185, 386.22079 207.28363499999998, 386.22079 207.28363499999998, 396.85072 189.567085, 396.85072 189.567085, 386.22079 171.85053499999998, 386.22079 171.85053499999998, 396.85072 154.133985, 396.85072 154.133985, 386.22079 136.41743499999998, 386.22079 136.41743499999998, 396.85072 118.700885, 396.85072 118.700885, 386.22079 100.98433499999999, 386.22079 100.98433499999999, 396.85072 83.267785, 396.85072 83.267785, 386.22079 65.55123499999999, 386.22079 65.55123499999999, 396.85072 47.834685, 396.85072 47.834685, 386.22079 23.9173425, 386.22079 23.9173425, 396.85072 10.62993, 396.85071999999997 10.62993, 372.93337749999995 0, 372.93337749999995 0, 349.01603499999993 10.62993, 349.01603499999993 10.62993, 331.29948499999995 0, 331.29948499999995 0, 313.58293499999996 10.62993, 313.58293499999996 10.62993, 295.866385 0, 295.866385 0, 278.14983499999994 10.62993, 278.14983499999994 10.62993, 260.43328499999996 0, 260.43328499999996 0, 242.716735 10.62993, 242.716735 10.62993, 225.000185 0, 225.000185 0, 207.28363499999998 10.62993, 207.28363499999998 10.62993, 189.567085 0, 189.567085 0, 171.85053499999998 10.62993, 171.85053499999998 10.62993, 154.133985 0, 154.133985 0, 136.41743499999998 10.62993, 136.41743499999998 10.62993, 118.700885 0, 118.700885 0, 100.98433499999999 10.62993, 100.98433499999999 10.62993, 83.267785 0, 83.267785 0, 65.55123499999999 10.62993, 65.55123499999999 10.62993, 47.834685 0, 47.834685 0, 23.9173425 10.62993, 23.9173425 "/> 
</g>
<!-- Right--> 
<g transform="translate(674.4690585, 419.3507385) " > 
<polygon style="stroke:#000000; fill:none; stroke-width:0.90000074" points="10.62993, 0 23.9173425, 0 23.9173425, 10.62993 47.834685, 10.62993 47.834685, 0 65.55123499999999, 0 65.55123499999999, 10.62993 83.267785, 10.62993 83.267785, 0 100.98433499999999, 0 100.98433499999999, 10.62993 118.700885, 10.62993 118.700885, 0 136.41743499999998, 0 136.41743499999998, 10.62993 154.133985, 10.62993 154.133985, 0 171.85053499999998, 0 171.85053499999998, 10.62993 189.567085, 10.62993 189.567085, 0 207.28363499999998, 0 207.28363499999998, 10.62993 225.000185, 10.62993 225.000185, 0 242.716735, 0 242.716735, 10.62993 260.43328499999996, 10.62993 260.43328499999996, 0 278.14983499999994, 0 278.14983499999994, 10.62993 295.866385, 10.62993 295.866385, 0 313.58293499999996, 0 313.58293499999996, 10.62993 331.29948499999995, 10.62993 331.29948499999995, 0 349.01603499999993, 0 349.01603499999993, 10.62993 372.93337749999995, 10.62993 372.93337749999995, 0 386.22079, 0 386.22079, 23.9173425 396.85072, 23.9173425 396.85072, 47.834685 386.22079, 47.834685 386.22079, 65.55123499999999 396.85072, 65.55123499999999 396.85072, 83.267785 386.22079, 83.267785 386.22079, 100.98433499999999 396.85072, 100.98433499999999 396.85072, 118.700885 386.22079, 118.700885 386.22079, 136.41743499999998 396.85072, 136.41743499999998 396.85072, 154.133985 386.22079, 154.133985 386.22079, 171.85053499999998 396.85072, 171.85053499999998 396.85072, 189.567085 386.22079, 189.567085 386.22079, 207.28363499999998 396.85072, 207.28363499999998 396.85072, 225.000185 386.22079, 225.000185 386.22079, 242.716735 396.85072, 242.716735 396.85072, 260.43328499999996 386.22079, 260.43328499999996 386.22079, 278.14983499999994 396.85072, 278.14983499999994 396.85072, 295.866385 386.22079, 295.866385 386.22079, 313.58293499999996 396.85072, 313.58293499999996 396.85072, 331.29948499999995 386.22079, 331.29948499999995 386.22079, 349.01603499999993 396.85072, 349.01603499999993 396.85072, 372.93337749999995 386.22079, 372.93337749999995 386.22078999999997, 396.85072 372.93337749999995, 396.85072 372.93337749999995, 386.22079 349.01603499999993, 386.22079 349.01603499999993, 396.85072 331.29948499999995, 396.85072 331.29948499999995, 386.22079 313.58293499999996, 386.22079 313.58293499999996, 396.85072 295.866385, 396.85072 295.866385, 386.22079 278.14983499999994, 386.22079 278.14983499999994, 396.85072 260.43328499999996, 396.85072 260.43328499999996, 386.22079 242.716735, 386.22079 242.716735, 396.85072 225.000185, 396.85072 225.000185, 386.22079 207.28363499999998, 386.22079 207.28363499999998, 396.85072 189.567085, 396.85072 189.567085, 386.22079 171.85053499999998, 386.22079 171.85053499999998, 396.85072 154.133985, 396.85072 154.133985, 386.22079 136.41743499999998, 386.22079 136.41743499999998, 396.85072 118.700885, 396.85072 118.700885, 386.22079 100.98433499999999, 386.22079 100.98433499999999, 396.85072 83.267785, 396.85072 83.267785, 386.22079 65.55123499999999, 386.22079 65.55123499999999, 396.85072 47.834685, 396.85072 47.834685, 386.22079 23.9173425, 386.22079 23.9173425, 396.85072 10.62993, 396.85071999999997 10.62993, 372.93337749999995 0, 372.93337749999995 0, 349.01603499999993 10.62993, 349.01603499999993 10.62993, 331.29948499999995 0, 331.29948499999995 0, 313.58293499999996 10.62993, 313.58293499999996 10.62993, 295.866385 0, 295.866385 0, 278.14983499999994 10.62993, 278.14983499999994 10.62993, 260.43328499999996 0, 260.43328499999996 0, 242.716735 10.62993, 242.716735 10.62993, 225.000185 0, 225.000185 0, 207.28363499999998 10.62993, 207.28363499999998 10.62993, 189.567085 0, 189.567085 0, 171.85053499999998 10.62993, 171.85053499999998 10.62993, 154.133985 0, 154.133985 0, 136.41743499999998 10.62993, 136.41743499999998 10.62993, 118.700885 0, 118.700885 0, 100.98433499999999 10.62993, 100.98433499999999 10.62993, 83.267785 0, 83.267785 0, 65.55123499999999 10.62993, 65.55123499999999 10.62993, 47.834685 0, 47.834685 0, 23.9173425 10.62993, 23.9173425 "/> 
</g>
<!-- Top--> 
<g transform="translate(22.5000185, 419.3507385) " > 
<polygon style="stroke:#000000; fill:none; stroke-width:0.90000074" points="10.62993, 10.62993 23.9173425, 10.62993 23.9173425, 0 47.834685, 0 47.834685, 10.62993 65.55123499999999, 10.62993 65.55123499999999, 0 83.267785, 0 83.267785, 10.62993 100.98433499999999, 10.62993 100.98433499999999, 0 118.700885, 0 118.700885, 10.62993 136.41743499999998, 10.62993 136.41743499999998, 0 154.133985, 0 154.133985, 10.62993 171.85053499999998, 10.62993 171.85053499999998, 0 189.567085, 0 189.567085, 10.62993 207.28363499999998, 10.62993 207.28363499999998, 0 225.000185, 0 225.000185, 10.62993 242.716735, 10.62993 242.716735, 0 260.43328499999996, 0 260.43328499999996, 10.62993 278.14983499999994, 10.62993 278.14983499999994, 0 302.06717749999996, 0 302.06717749999996, 10.62993 315.35459, 10.62993 315.35459, 23.9173425 325.98452, 23.9173425 325.98452, 47.834685 315.35459, 47.834685 315.35459, 65.55123499999999 325.98452, 65.55123499999999 325.98452, 83.267785 315.35459, 83.267785 315.35459, 100.98433499999999 325.98452, 100.98433499999999 325.98452, 118.700885 315.35459, 118.700885 315.35459, 136.41743499999998 325.98452, 136.41743499999998 325.98452, 154.133985 315.35459, 154.133985 315.35459, 171.85053499999998 325.98452, 171.85053499999998 325.98452, 189.567085 315.35459, 189.567085 315.35459, 207.28363499999998 325.98452, 207.28363499999998 325.98452, 225.000185 315.35459, 225.000185 315.35459, 242.716735 325.98452, 242.716735 325.98452, 260.43328499999996 315.35459, 260.43328499999996 315.35459, 278.14983499999994 325.98452, 278.14983499999994 325.98452, 295.866385 315.35459, 295.866385 315.35459, 313.58293499999996 325.98452, 313.58293499999996 325.98452, 331.29948499999995 315.35459, 331.29948499999995 315.35459, 349.01603499999993 325.98452, 349.01603499999993 325.98452, 372.93337749999995 315.35459, 372.93337749999995 315.35459, 386.22079 302.06717749999996, 386.22079 302.06717749999996, 396.85072 278.14983499999994, 396.85072 278.14983499999994, 386.22079 260.43328499999996, 386.22079 260.43328499999996, 396.85072 242.716735, 396.85072 242.716735, 386.22079 225.000185, 386.22079 225.000185, 396.85072 207.28363499999998, 396.85072 207.28363499999998, 386.22079 189.567085, 386.22079 189.567085, 396.85072 171.85053499999998, 396.85072 171.85053499999998, 386.22079 154.133985, 386.22079 154.133985, 396.85072 136.41743499999998, 396.85072 136.41743499999998, 386.22079 118.700885, 386.22079 118.700885, 396.85072 100.98433499999999, 396.85072 100.98433499999999, 386.22079 83.267785, 386.22079 83.267785, 396.85072 65.55123499999999, 396.85072 65.55123499999999, 386.22079 47.834685, 386.22079 47.834685, 396.85072 23.9173425, 396.85072 23.9173425, 386.22079 10.62993, 386.22078999999997 10.62993, 372.93337749999995 0, 372.93337749999995 0, 349.01603499999993 10.62993, 349.01603499999993 10.62993, 331.29948499999995 0, 331.29948499999995 0, 313.58293499999996 10.62993, 313.58293499999996 10.62993, 295.866385 0, 295.866385 0, 278.14983499999994 10.62993, 278.14983499999994 10.62993, 260.43328499999996 0, 260.43328499999996 0, 242.716735 10.62993, 242.716735 10.62993, 225.000185 0, 225.000185 0, 207.28363499999998 10.62993, 207.28363499999998 10.62993, 189.567085 0, 189.567085 0, 171.85053499999998 10.62993, 171.85053499999998 10.62993, 154.133985 0, 154.133985 0, 136.41743499999998 10.62993, 136.41743499999998 10.62993, 118.700885 0, 118.700885 0, 100.98433499999999 10.62993, 100.98433499999999 10.62993, 83.267785 0, 83.267785 0, 65.55123499999999 10.62993, 65.55123499999999 10.62993, 47.834685 0, 47.834685 0, 23.9173425 10.62993, 23.9173425 "/> 
</g>
<!-- Bottom--> 
<g transform="translate(348.4845385, 419.3507385) " > 
<polygon style="stroke:#000000; fill:none; stroke-width:0.90000074" points="10.62993, 10.62993 23.9173425, 10.62993 23.9173425, 0 47.834685, 0 47.834685, 10.62993 65.55123499999999, 10.62993 65.55123499999999, 0 83.267785, 0 83.267785, 10.62993 100.98433499999999, 10.62993 100.98433499999999, 0 118.700885, 0 118.700885, 10.62993 136.41743499999998, 10.62993 136.41743499999998, 0 154.133985, 0 154.133985, 10.62993 171.85053499999998, 10.62993 171.85053499999998, 0 189.567085, 0 189.567085, 10.62993 207.28363499999998, 10.62993 207.28363499999998, 0 225.000185, 0 225.000185, 10.62993 242.716735, 10.62993 242.716735, 0 260.43328499999996, 0 260.43328499999996, 10.62993 278.14983499999994, 10.62993 278.14983499999994, 0 302.06717749999996, 0 302.06717749999996, 10.62993 315.35459, 10.62993 315.35459, 23.9173425 325.98452, 23.9173425 325.98452, 47.834685 315.35459, 47.834685 315.35459, 65.55123499999999 325.98452, 65.55123499999999 325.98452, 83.267785 315.35459, 83.267785 315.35459, 100.98433499999999 325.98452, 100.98433499999999 325.98452, 118.700885 315.35459, 118.700885 315.35459, 136.41743499999998 325.98452, 136.41743499999998 325.98452, 154.133985 315.35459, 154.133985 315.35459, 171.85053499999998 325.98452, 171.85053499999998 325.98452, 189.567085 315.35459, 189.567085 315.35459, 207.28363499999998 325.98452, 207.28363499999998 325.98452, 225.000185 315.35459, 225.000185 315.35459, 242.716735 325.98452, 242.716735 325.98452, 260.43328499999996 315.35459, 260.43328499999996 315.35459, 278.14983499999994 325.98452, 278.14983499999994 325.98452, 295.866385 315.35459, 295.866385 315.35459, 313.58293499999996 325.98452, 313.58293499999996 325.98452, 331.29948499999995 315.35459, 331.29948499999995 315.35459, 349.01603499999993 325.98452, 349.01603499999993 325.98452, 372.93337749999995 315.35459, 372.93337749999995 315.35459, 386.22079 302.06717749999996, 386.22079 302.06717749999996, 396.85072 278.14983499999994, 396.85072 278.14983499999994, 386.22079 260.43328499999996, 386.22079 260.43328499999996, 396.85072 242.716735, 396.85072 242.716735, 386.22079 225.000185, 386.22079 225.000185, 396.85072 207.28363499999998, 396.85072 207.28363499999998, 386.22079 189.567085, 386.22079 189.567085, 396.85072 171.85053499999998, 396.85072 171.85053499999998, 386.22079 154.133985, 386.22079 154.133985, 396.85072 136.41743499999998, 396.85072 136.41743499999998, 386.22079 118.700885, 386.22079 118.700885, 396.85072 100.98433499999999, 396.85072 100.98433499999999, 386.22079 83.267785, 386.22079 83.267785, 396.85072 65.55123499999999, 396.85072 65.55123499999999, 386.22079 47.834685, 386.22079 47.834685, 396.85072 23.9173425, 396.85072 23.9173425, 386.22079 10.62993, 386.22078999999997 10.62993, 372.93337749999995 0, 372.93337749999995 0, 349.01603499999993 10.62993, 349.01603499999993 10.62993, 331.29948499999995 0, 331.29948499999995 0, 313.58293499999996 10.62993, 313.58293499999996 10.62993, 295.866385 0, 295.866385 0, 278.14983499999994 10.62993, 278.14983499999994 10.62993, 260.43328499999996 0, 260.43328499999996 0, 242.716735 10.62993, 242.716735 10.62993, 225.000185 0, 225.000185 0, 207.28363499999998 10.62993, 207.28363499999998 10.62993, 189.567085 0, 189.567085 0, 171.85053499999998 10.62993, 171.85053499999998 10.62993, 154.133985 0, 154.133985 0, 136.41743499999998 10.62993, 136.41743499999998 10.62993, 118.700885 0, 118.700885 0, 100.98433499999999 10.62993, 100.98433499999999 10.62993, 83.267785 0, 83.267785 0, 65.55123499999999 10.62993, 65.55123499999999 10.62993, 47.834685 0, 47.834685 0, 23.9173425 10.62993, 23.9173425 "/> 
</g></svg>